<svg width="65" height="54" viewBox="0 0 65 54" fill="none" xmlns="http://www.w3.org/2000/svg">
    <g clip-path="url(#clip0)">
        <path
            d="M4.16734 43.3076L4.56598 43.449L4.93634 43.3924C5.41132 43.6582 5.75058 43.7911 5.9598 43.7911C6.06441 43.678 6.40367 43.5819 6.98325 43.5055H7.0398C7.34231 43.6243 7.49498 43.7854 7.49498 43.989L7.46388 44.6703V44.9559L7.29425 45.4111L7.35079 45.7532L7.32252 46.1235C7.43561 46.4656 7.56849 46.7681 7.72116 47.0339C7.55153 47.5824 7.331 47.8566 7.06807 47.8566C6.87299 47.8566 6.59875 47.6304 6.24252 47.1753C6.14922 47.1272 6.10116 47.0509 6.10116 46.9491L6.15771 46.6635L5.9598 46.0387L5.98807 45.7249C5.98807 45.4393 5.77038 45.2782 5.33498 45.2414C5.1399 44.9955 4.93069 44.8711 4.71017 44.8711C4.54053 44.6817 4.38786 44.577 4.25498 44.5573C4.14472 44.5912 4.05142 44.6477 3.97226 44.7269L4.08535 45.069L4.05708 45.0973H3.97226C3.87896 45.0011 3.75456 44.9361 3.60189 44.8993C3.32765 44.8993 3.09017 45.0237 2.89226 45.2697C2.55017 45.4818 2.38053 45.7079 2.38053 45.9511C2.38053 46.2649 2.27593 46.4713 2.06954 46.5759L1.92818 46.7455V46.7738C2.02147 46.9095 2.06954 47.0141 2.06954 47.0848V47.1131C1.88011 47.3364 1.78682 47.4863 1.78682 47.5682L2.10064 47.8792V47.9358C2.09498 47.9754 2.00168 48.0489 1.81509 48.162L1.78682 48.3033L1.84336 48.6737H1.73027V48.702C1.78116 48.7981 1.78116 48.8462 1.73027 48.8462C1.73027 49.0441 1.85184 49.2731 2.10064 49.5275V49.5558L1.98755 49.9233L2.30137 50.322L2.2731 50.5481C2.38619 51.0033 2.58409 51.2295 2.86964 51.2295C2.9686 51.2917 3.08168 51.4529 3.20891 51.713C3.28524 51.7186 3.322 51.7356 3.322 51.7695L3.35027 51.7412H3.5199C3.66692 51.7412 3.76022 51.826 3.80263 51.9985L3.97226 52.0833L4.25498 52.0268L4.42462 52.0833C4.60839 52.0466 4.74127 51.9872 4.82325 51.9137H4.99289L5.21907 52.0268C5.35195 52.0268 5.45655 51.8571 5.53289 51.5151C5.8354 51.3963 5.98807 51.2436 5.98807 51.0599C6.4998 50.469 6.75425 50.1071 6.75425 49.9799C6.75425 49.7339 6.84755 49.6095 7.0398 49.6095L7.55153 50.0081C7.74095 50.0647 7.83425 50.158 7.83425 50.2909C7.83425 50.3898 7.7975 50.5312 7.72116 50.7178L7.91907 51.0853V51.1701C7.64482 51.4246 7.46388 51.6536 7.37907 51.8515C7.28577 51.8996 7.2377 51.9844 7.2377 52.1059L7.26598 52.4169C7.18964 52.5046 7.0398 52.5696 6.81079 52.6177C6.64399 52.9598 6.41781 53.1294 6.12943 53.1294C6.01634 53.3132 5.75059 53.4545 5.33498 53.5563L5.04943 53.7542H4.99289C4.82326 53.6411 4.70734 53.5846 4.65362 53.5846L4.36807 53.6411L3.88462 53.528L3.63017 53.6977C3.54535 53.6977 3.42095 53.6015 3.2598 53.4121H3.23153L2.83289 53.4404L2.40598 52.9852H2.15153C2.07519 52.9852 1.97058 52.8156 1.83771 52.4735C1.50975 52.089 1.31184 51.8798 1.24116 51.8487L1.12807 51.5348L1.15634 51.5066V51.4783L0.701161 50.2852C0.701161 50.1523 0.653098 49.9346 0.559799 49.6321L0.588072 49.1204C0.494773 48.9451 0.446711 48.8037 0.446711 48.6935L0.503255 48.2666L0.446711 48.0121L0.588072 47.5004L0.531527 47.2714V47.2148L0.785978 46.7031C0.955611 46.2762 1.04325 45.9539 1.04325 45.7362C1.14221 45.6231 1.21854 45.462 1.27226 45.2527L1.24399 45.2245V45.1962C1.25247 45.0916 1.39666 44.9418 1.6709 44.741C1.69069 44.6081 1.7953 44.4668 1.98472 44.3141C2.12326 44.3141 2.34095 44.1445 2.63781 43.8024C2.84985 43.8024 3.11561 43.678 3.43226 43.432H3.68954L3.80263 43.4603L4.16734 43.3076Z"
            fill="#111111" />
        <path
            d="M13.7601 43.6921H13.9297C14.1107 43.9381 14.3001 44.0597 14.498 44.0597C14.645 44.0597 14.8147 44.1841 15.0097 44.43C15.4084 44.5771 15.6063 44.7382 15.6063 44.9135L16.1463 45.7391C16.2565 45.7391 16.3414 45.9935 16.4036 46.5052C16.6269 46.9519 16.7598 47.2629 16.8022 47.4439L16.7739 47.6135V47.8114C16.9068 47.9443 16.9718 48.3429 16.9718 49.0045L16.8022 49.3466L16.8305 49.4314L16.8022 49.4597L16.9153 49.6321V49.83L16.7457 50.141L16.7739 50.5397V50.568C16.5478 50.8252 16.4318 51.0797 16.4318 51.3341L16.2057 51.7893C15.8607 52.1738 15.6035 52.5809 15.4395 53.0107L14.9278 53.2962C14.8797 53.4291 14.6252 53.5507 14.1616 53.6666C13.9919 53.856 13.8675 53.9493 13.7912 53.9493L13.4491 53.7231L12.9939 53.7514H12.9091C12.8526 53.7514 12.6999 53.8277 12.4539 53.9804H12.3974C12.1712 53.7344 12.027 53.61 11.9705 53.61L11.716 53.6383C11.6651 53.6383 11.5323 53.5054 11.3174 53.2397L11.176 53.2114L10.9781 53.2397C10.8735 53.2397 10.7689 53.07 10.6643 52.728L10.0395 52.0466C9.97445 51.9646 9.93487 51.8515 9.92639 51.7045H9.95466C9.89812 51.4642 9.74545 51.1136 9.49948 50.6528L9.47121 50.5114L9.49948 50.3418C9.34681 50.028 9.2733 49.83 9.2733 49.7452C9.3666 49.6039 9.41466 49.4795 9.41466 49.3749C9.3666 49.3749 9.31005 49.2618 9.24503 49.0328L9.44293 48.5776C9.44293 48.521 9.37791 48.3882 9.24503 48.1789L9.44293 47.6672L9.38639 47.3534L9.75675 46.7569C9.83874 46.5731 9.90377 46.3186 9.95466 45.9907C10.2006 45.6966 10.3448 45.4592 10.3816 45.281C10.5145 45.1906 10.6275 45.0011 10.7237 44.7128C10.8028 44.6195 10.9753 44.5318 11.2354 44.4555C11.3909 44.1897 11.6482 44.0569 12.0016 44.0569C12.1995 43.8307 12.3719 43.7148 12.5133 43.7148C12.7508 43.8844 12.9006 43.9692 12.9685 43.9692L13.1947 43.8844L13.3643 43.9127H13.4774L13.7601 43.6921ZM13.2314 45.1255L13.2088 45.2245L13.172 45.2867L13.1296 45.38C13.0929 45.3941 13.059 45.4139 13.0307 45.4365C12.9459 45.3517 12.895 45.2669 12.8808 45.1821H12.8243C12.7112 45.2019 12.5953 45.2471 12.4765 45.3178C12.3521 45.3178 12.2532 45.298 12.1769 45.2612C12.126 45.2612 12.0072 45.3998 11.8291 45.674C11.4559 45.8069 11.2665 46.0274 11.2665 46.3356L11.3457 46.5505V46.6918L10.947 47.0763L10.9187 47.1838L11.1591 47.4043V47.4891C11.1591 47.54 11.0431 47.605 10.8113 47.6785C10.6502 47.9104 10.571 48.1394 10.571 48.3599L10.6502 48.6087V48.685L10.5145 49.0413C10.6558 49.2872 10.7265 49.4625 10.7265 49.5671L10.6982 49.6463C10.6982 50.0534 10.8226 50.3474 11.0742 50.5284C11.1251 50.5906 11.1647 50.7234 11.1873 50.9327C11.3287 51.1221 11.3994 51.2691 11.3994 51.3737L11.3711 51.566L11.5351 51.6508L11.7754 51.6225C11.8376 51.6225 11.8885 51.7865 11.9309 52.1116C12.1542 52.3859 12.4059 52.5244 12.6829 52.5244C12.7338 52.5244 12.878 52.4424 13.1155 52.2756C13.1664 52.2756 13.3106 52.3491 13.5424 52.4961H13.599C13.7092 52.4961 13.8053 52.4311 13.8902 52.3039C14.2916 52.3039 14.6252 52.0777 14.8853 51.6225L14.9136 51.5377L14.8853 51.3737C14.8853 51.2606 15.0097 51.1051 15.2614 50.9129C15.332 50.8083 15.3971 50.6528 15.4536 50.4436V50.1156C15.4536 50.0449 15.5158 49.9092 15.6374 49.7028C15.6374 49.6321 15.6006 49.5388 15.5299 49.4258V49.3466L15.6657 48.9904V48.9621C15.6657 48.8914 15.6204 48.7896 15.5299 48.6568V48.5776L15.6374 48.2214V48.1648C15.496 47.981 15.4225 47.8086 15.4225 47.6474C15.3801 47.4099 15.3349 47.2912 15.2868 47.2912L15.3151 47.1498V47.0707C15.3094 47.0283 15.202 46.9095 14.9871 46.7144L14.8797 46.5448L14.908 46.3526V46.3299C14.908 46.1264 14.6479 45.8606 14.1276 45.5355C14.1135 45.4224 13.8195 45.2952 13.2456 45.151L13.2314 45.1255Z"
            fill="#111111" />
        <path
            d="M22.0637 45.1256L21.9506 45.069C21.4756 45.1764 21.241 45.3291 21.241 45.5242C21.3738 45.674 21.4389 45.7984 21.4389 45.8946C21.3908 45.8946 21.3427 45.9709 21.2975 46.1207L21.3823 46.3497C21.3823 46.4487 21.3258 46.5618 21.2127 46.689L21.1844 46.8897L21.2975 47.2007C21.5802 47.2347 21.7244 47.2912 21.7244 47.3704V47.3986L21.6396 47.6814C21.6763 47.6814 21.6961 47.721 21.6961 47.7945L21.9223 47.9075L22.2644 47.851H22.2927C22.369 47.8793 22.4058 47.9358 22.4058 48.0206H22.434C22.6178 47.9641 22.7422 47.851 22.8044 47.6785V47.5372L22.7761 47.2827L22.9175 46.7145L22.861 46.5448C22.9034 46.4317 22.9684 46.3752 23.0617 46.3752C23.7063 46.4544 24.0286 46.5957 24.0286 46.8021L24.0003 47.2573L24.1417 47.8256V47.8538L24.0851 48.1959L24.1417 48.6511C24.1049 48.7274 24.0851 48.832 24.0851 48.9621V48.9904L24.1417 49.3042C24.0851 49.5304 24.0484 49.8527 24.0286 50.2711C23.9438 50.4266 23.859 50.6641 23.7741 50.9807C23.6893 51.0571 23.6215 51.0938 23.5762 51.0938L23.2059 50.7517C22.9401 50.7122 22.8072 50.6358 22.8072 50.5256L22.9203 50.1835L22.7224 49.6717L22.779 49.4456C22.7168 49.2929 22.6319 49.2194 22.5245 49.2194L22.2983 49.3607H22.2418L21.9873 49.1035H21.9591C21.6566 49.1996 21.5039 49.2929 21.5039 49.389C21.5039 49.4258 21.5802 49.5219 21.7301 49.6717V49.7566L21.5039 50.1241V50.2372C21.5972 50.3757 21.6452 50.4888 21.6452 50.5793V50.6358C21.6396 50.6782 21.5633 50.7546 21.4191 50.8648L21.3908 51.0345L21.5887 51.32V51.4614L21.4191 51.7724C21.453 51.8996 21.6028 52.0607 21.8743 52.2558H21.9308L22.157 52.2275L22.3832 52.2558C22.4962 52.2558 22.6291 52.1597 22.7818 51.9731C22.8383 51.9731 22.8666 51.9533 22.8666 51.9166C23.1691 51.9788 23.3218 52.1003 23.3218 52.2869V52.4566L23.2935 52.4848L23.4349 52.7675L23.4632 53.0248C23.3303 53.3075 23.1691 53.4517 22.9797 53.4517C22.9571 53.4857 22.6715 53.562 22.1259 53.6779L21.7272 53.5931C21.6226 53.6298 21.5576 53.6864 21.5293 53.7656C21.4162 53.7656 21.3201 53.7175 21.2438 53.6242H21.1872L20.7603 53.7373L20.3051 53.5366C20.0168 53.5366 19.7114 53.6016 19.3948 53.7373L18.9113 53.5677C18.5127 53.5252 18.3148 53.3924 18.3148 53.169V53.1407C18.4477 52.7421 18.5127 52.4877 18.5127 52.3717C18.5127 52.3152 18.5692 52.2473 18.6823 52.1738L19.1092 52.3717H19.4513C19.5474 52.3717 19.6888 52.2473 19.8782 52.0042C19.9913 51.9363 20.0479 51.8515 20.0479 51.7469L19.9065 51.4642V51.3794L20.1355 51.0373V51.009L20.0507 50.6952L20.079 50.1552L20.0507 49.7283L20.1638 49.3607L20.0507 49.0186V48.9621C20.0507 48.8999 20.0988 48.7981 20.1921 48.6511V48.538L20.0507 48.0828V47.6277L19.9941 47.4015V47.2884L20.079 46.9463L19.9659 46.5194L20.079 46.1773L19.9659 45.7504L20.0507 45.38C19.8895 45.134 19.7199 44.9729 19.539 44.8966C19.2647 44.8966 19.0074 45.0096 18.7728 45.2386L18.6597 45.2669C18.4901 45.1962 18.4052 45.1086 18.4052 45.0096L18.4335 44.7241L18.2922 44.1275C18.3911 43.9381 18.524 43.842 18.6908 43.842L19.1177 43.8703L19.4315 43.842L19.6577 43.8703L19.9998 43.7855H20.0563C20.3362 43.8787 20.5539 43.9268 20.7094 43.9268C20.9045 43.9268 21.159 43.8618 21.4756 43.7289H21.5039L22.2701 43.9268C22.5358 43.7939 22.7055 43.7289 22.7818 43.7289H22.9232L23.3783 43.8137L24.3735 43.6724H24.4018C24.676 43.7855 25.0464 43.8901 25.5101 43.9834C25.9652 44.3877 26.1914 44.6619 26.1914 44.8089V44.8372C26.1914 44.9701 26.1716 45.0747 26.1349 45.1482C26.1999 45.3376 26.2565 45.7645 26.3045 46.4261L26.4176 46.7964C26.3328 47.3647 26.1801 47.6503 25.9624 47.6503V47.622L25.9341 47.6503H25.7928C25.6034 47.6503 25.4224 47.4806 25.2528 47.1385C25.0266 46.9435 24.9107 46.8304 24.9107 46.7964V46.7682L24.9955 46.4261L24.8541 46.0585V46.002L24.9955 45.5751C24.8966 45.3913 24.7552 45.2302 24.5686 45.0916H24.4555L24.0569 45.0634C24.0145 45.0634 23.9014 45.168 23.7148 45.3744L23.3161 45.1199L23.203 45.1482L22.6348 45.0916"
            fill="#111111" />
        <path
            d="M32.7506 45.1254L32.6375 45.1537L32.0692 45.0971C32.0042 45.0971 31.8996 45.1735 31.7582 45.3262H31.7017C31.6225 45.2922 31.5547 45.2272 31.5038 45.1282L31.3907 45.0717C30.9185 45.1791 30.681 45.3318 30.681 45.5269C30.8139 45.6767 30.879 45.8011 30.879 45.8972C30.8309 45.8972 30.7857 45.9736 30.7376 46.1234L30.8224 46.3524C30.8224 46.4514 30.7659 46.5645 30.6528 46.6917L30.6245 46.8924L30.7376 47.2034C31.0231 47.2374 31.1645 47.2939 31.1645 47.3731V47.4013L31.0797 47.6841C31.1164 47.6841 31.1362 47.7236 31.1362 47.7971L31.3624 47.9102L31.7045 47.8537H31.7328C31.8091 47.882 31.8459 47.9385 31.8459 48.0233H31.8741C32.0579 47.9668 32.1823 47.8537 32.2445 47.6812V47.5399L32.2162 47.2854L32.3576 46.7171L32.301 46.5475C32.3435 46.4344 32.4085 46.3779 32.499 46.3779C33.1436 46.457 33.4659 46.5984 33.4659 46.8048L33.4376 47.26L33.579 47.8282V47.8565L33.5224 48.1986L33.579 48.6538C33.5422 48.7301 33.5224 48.8347 33.5224 48.9648V48.9931L33.579 49.3069C33.5224 49.5331 33.4857 49.8554 33.4659 50.2738C33.3811 50.4293 33.2962 50.6668 33.2114 50.9834C33.1266 51.0598 33.0587 51.0965 33.0107 51.0965L32.6403 50.7544C32.3746 50.7148 32.2417 50.6385 32.2417 50.5282L32.3548 50.1861L32.1569 49.6744L32.2134 49.4482C32.1512 49.2956 32.0664 49.2221 31.959 49.2221L31.73 49.3634H31.6734L31.419 49.1062H31.3907C31.0882 49.2023 30.9355 49.2956 30.9355 49.3917C30.9355 49.4285 31.0118 49.5246 31.1617 49.6744V49.7592L30.9355 50.1268V50.2399C31.0316 50.3784 31.0769 50.4915 31.0769 50.582V50.6385C31.0712 50.6809 30.9977 50.7572 30.8479 50.8675L30.8196 51.0371L31.0203 51.3227V51.4641L30.8479 51.7751C30.8818 51.9023 31.0345 52.0634 31.303 52.2585H31.3596L31.5858 52.2302L31.8119 52.2585C31.925 52.2585 32.0579 52.1624 32.2106 51.9758C32.2671 51.9758 32.2954 51.956 32.2954 51.9192C32.5979 51.9814 32.7506 52.103 32.7506 52.2896V52.4592L32.7223 52.4875L32.8637 52.7702L32.8919 53.0275C32.7591 53.3102 32.5979 53.4544 32.4085 53.4544C32.3859 53.4884 32.1003 53.5647 31.5575 53.6806L31.1588 53.5958C31.0542 53.6325 30.9892 53.6891 30.9609 53.7682C30.8479 53.7682 30.7546 53.7202 30.6754 53.6269H30.6188L30.1919 53.74L29.7368 53.5392C29.4484 53.5392 29.1459 53.6043 28.8292 53.74L28.3458 53.5703C27.9471 53.5279 27.7492 53.3951 27.7492 53.1717V53.1434C27.8821 52.7448 27.9471 52.4903 27.9471 52.3744C27.9471 52.3179 28.0037 52.25 28.1168 52.1765L28.5437 52.3744H28.8858C28.9819 52.3744 29.1232 52.25 29.3127 52.0069C29.4258 51.939 29.4823 51.8542 29.4823 51.7496L29.3409 51.4669V51.3821L29.5671 51.04V51.0117L29.4823 50.6979L29.5106 50.1579L29.4823 49.731L29.5954 49.3634L29.4823 49.0213V48.9648C29.4823 48.9026 29.5304 48.8008 29.6237 48.6538V48.5407L29.4823 48.0855V47.6303L29.4258 47.4042V47.2911L29.5106 46.949L29.3975 46.5221L29.5106 46.18L29.3975 45.7531L29.4823 45.3827C29.3212 45.1367 29.1515 44.9756 28.9706 44.8992C28.6963 44.8992 28.4419 45.0123 28.2044 45.2413L28.0913 45.2696C27.9217 45.1989 27.8369 45.1113 27.8369 45.0123L27.8651 44.7268L27.7238 44.1302C27.8227 43.9408 27.9556 43.8447 28.1224 43.8447L28.5493 43.873L28.8631 43.8447L29.0893 43.873L29.4314 43.7881H29.488C29.7679 43.8814 29.9856 43.9295 30.141 43.9295C30.3361 43.9295 30.5906 43.8645 30.9072 43.7316H30.9355L31.7017 43.9295C31.9674 43.7966 32.1371 43.7316 32.2134 43.7316H32.3548L32.81 43.8164L33.8023 43.675H33.8306C34.1048 43.7881 34.4752 43.8927 34.9389 43.986C35.394 44.3903 35.6202 44.6646 35.6202 44.8116V44.8399C35.6202 44.9727 35.6004 45.0774 35.5637 45.1509C35.6315 45.3403 35.6881 45.7672 35.7333 46.4288L35.8464 46.7991C35.7616 47.3674 35.6089 47.653 35.3912 47.653V47.6247L35.3629 47.653H35.2216C35.0322 47.653 34.8512 47.4833 34.6816 47.1412C34.4554 46.9462 34.3395 46.8331 34.3395 46.7991V46.7709L34.4243 46.4288L34.2829 46.0612V46.0047L34.4243 45.5778C34.3253 45.394 34.184 45.2329 33.9974 45.0943H33.8843L33.4857 45.066"
            fill="#111111" />
        <path
            d="M42.7533 43.7344L43.2085 43.904L43.4375 43.8475C43.5365 43.8475 43.6495 43.8955 43.7768 43.9888L44.2037 43.8192C44.3988 43.9323 44.6249 44.0284 44.885 44.1019L45.0547 44.3281V44.3846L44.9981 44.6108C45.1876 45.0801 45.2809 45.3911 45.2809 45.5466L45.4505 46.5418L45.3657 47.0253L45.4222 47.2232C45.4222 47.2656 45.3091 47.4267 45.0801 47.7066C45.0094 47.8593 44.9133 47.9356 44.7946 47.9356C44.7239 47.9356 44.656 47.8706 44.5967 47.7349L44.6532 47.4239C44.5458 47.0224 44.345 46.7086 44.0567 46.4853V46.457C44.1895 46.31 44.2546 46.1969 44.2546 46.1149V46.0301C44.1217 45.8831 44.0567 45.77 44.0567 45.688C44.0567 45.6088 44.133 45.4731 44.2828 45.2893V45.2611C44.2828 45.1565 44.1613 45.0321 43.9125 44.8907C43.8333 44.8766 43.7457 44.8483 43.6552 44.8059L43.6269 44.8342H43.5987L43.5704 44.8059H43.5421C43.3414 44.8059 43.0982 44.919 42.8042 45.148H42.7194C42.6544 45.148 42.5102 45.0717 42.2925 44.9218C41.8571 44.9218 41.5744 44.9868 41.4415 45.1197L41.2718 45.2045C41.2238 45.2045 41.0909 45.1282 40.8732 44.9784H40.7884C40.5764 44.9784 40.4237 45.0264 40.3332 45.1197V45.3176C40.3332 45.4533 40.3615 45.6145 40.418 45.8011L40.3898 46.228C40.3898 46.4937 40.4661 46.7199 40.6188 46.9093V47.0507C40.5226 47.1864 40.4746 47.291 40.4746 47.3645C40.4972 47.4578 40.6046 47.5624 40.7884 47.6755L40.8167 47.8169L40.7319 48.0148H40.7601L40.9015 48.0996H40.9863L41.3849 47.8734L41.6422 47.9017C41.7638 47.8395 41.8684 47.6614 41.956 47.3617V47.2769C41.8797 47.1525 41.8429 47.0507 41.8429 46.9659C41.8429 46.7849 42.0239 46.6719 42.3829 46.6238L42.725 46.3693C42.8777 46.3693 42.9512 46.5107 42.9512 46.7963C43.0841 47.0479 43.1491 47.2288 43.1491 47.3363L43.0926 47.6218L43.2339 48.1335L43.2057 48.4445L43.2339 49.0693V49.2955L43.2622 49.4934H43.2339L43.2622 49.5217V49.55C43.1972 50.4208 43.0643 50.8562 42.8664 50.8562H42.7816C42.5271 50.8562 42.2218 50.7233 41.874 50.4575V50.3727L41.9871 49.8327L41.8175 49.3492L41.8458 49.2644C41.761 49.2248 41.7129 49.1881 41.7044 49.1513L41.4782 49.1796L41.1107 49.1513L40.7686 49.5217C40.6555 49.5839 40.5707 49.6885 40.5142 49.8355L40.5424 50.1211V50.3473L40.5142 50.5169C40.5142 50.678 40.6103 50.8562 40.7997 51.0569V51.0852L40.5424 51.3396V51.3962L40.9411 51.6789L40.9693 51.7071V51.7354L40.8845 52.021L40.9128 52.1623H40.9976L41.368 52.021L41.6535 52.0492C41.8232 51.8033 41.956 51.6789 42.0522 51.6789H42.1087C42.1568 51.6789 42.2331 51.792 42.3349 52.021L42.4225 52.0775L42.8777 51.9051L43.3894 52.1312L43.7598 52.1595C43.969 52.0125 44.0736 51.8429 44.0736 51.6478C44.0736 51.4951 44.0538 51.4188 44.0171 51.4188L44.1019 50.9636L44.0454 50.565C44.0454 50.5225 44.1584 50.3981 44.3875 50.1974L44.7578 49.6009L44.7295 49.4595V49.3747L44.8144 49.2899C44.8992 49.2899 44.9953 49.4228 45.0999 49.6885C45.3289 49.7988 45.4985 50.0447 45.6116 50.4264L45.5268 50.9381L45.6116 51.3085V51.3368L45.442 51.8202L45.4137 52.332L45.442 52.5016L45.3855 52.872L45.442 53.1858C45.442 53.2763 45.2922 53.4176 44.9868 53.6127H44.9586L44.5316 53.5279L44.2489 53.5844L44.0227 53.5279L43.5676 53.7258L42.8014 53.5562L42.0069 53.7541H41.9221C41.5631 53.641 41.3256 53.5844 41.2125 53.5844H41.1277L40.5877 53.7541L40.2173 53.5279H39.8187L39.3352 53.6975H39.3069L38.9366 53.5562L38.6793 53.5844L38.3655 53.5279H38.3089L38.0545 53.5562C38.0036 53.5562 37.8509 53.4798 37.5993 53.3271C37.3533 53.3271 37.212 53.2791 37.1724 53.1858V53.1292C37.2346 52.561 37.424 52.2754 37.7406 52.2754H37.7689L38.2241 52.3037L38.6793 52.021L39.1345 52.2189L39.3041 52.0775L39.2758 51.5941V51.2548L39.3606 50.7996L39.2476 50.2313L39.2758 49.7196L39.2476 49.4086L39.3606 48.9534L39.2758 48.6424L39.3889 48.1873L39.3606 47.8734L39.4455 47.4182L39.3041 46.8782C39.3804 46.703 39.4172 46.5418 39.4172 46.3948L39.3606 46.1686C39.3606 46.0895 39.4087 45.9368 39.5048 45.7134C39.4907 45.6371 39.4426 45.5608 39.3606 45.4873L39.3041 45.2893H39.3324C39.4144 45.2413 39.4709 45.1763 39.502 45.0914C39.502 45.0264 39.3211 44.9784 38.962 44.9501C38.7104 45.1028 38.5577 45.1763 38.5068 45.1763L38.0799 44.9218L37.7378 44.9501C37.653 44.9162 37.5767 44.8511 37.5116 44.7493V44.608C37.8113 44.0963 38.1619 43.839 38.5634 43.839L39.0185 44.0086L39.0468 43.9803H39.0751L39.1034 44.0086L39.813 43.7824L40.8082 43.9803C40.8732 43.9803 41.0457 43.9153 41.3199 43.7824H41.3765C41.5942 43.9549 41.8599 44.0369 42.1709 44.0369L42.6544 43.7542L42.7533 43.7344Z"
            fill="#111111" />
        <path
            d="M54.5202 49.4738V49.389V49.4738ZM54.8906 49.7028C55.1168 49.8131 55.2892 50.059 55.4023 50.4407L55.3175 50.9524L55.4023 51.3228V51.3511L55.2299 51.8345L55.2016 52.3462L55.2299 52.5159L55.1733 52.8834L55.2299 53.1972C55.2299 53.2877 55.08 53.4291 54.7775 53.6242H54.7492L54.3223 53.5393L54.0368 53.5959L53.8106 53.5393L53.3554 53.7372L52.5892 53.5676L51.792 53.7655H51.7071C51.3481 53.6524 51.1106 53.5959 50.9975 53.5959H50.9127L50.3727 53.7655L50.0051 53.5393H49.6065L49.1231 53.709H49.0948L48.7244 53.5676L48.47 53.5959L48.1561 53.5393H48.0996L47.8451 53.5676C47.7914 53.5676 47.6416 53.4913 47.39 53.3386C47.144 53.3386 47.0026 53.2905 46.9631 53.1972V53.1407C47.0253 52.5724 47.2147 52.2869 47.5313 52.2869H47.5596L48.0148 52.3151L48.47 52.0296L48.9251 52.2275L49.0948 52.0861L49.0665 51.6027V51.2606L49.1513 50.8054L49.0382 50.2371L49.0665 49.7254L49.0382 49.4144L49.1513 48.9592L49.0665 48.6482L49.1796 48.1931L49.1513 47.8792L49.2361 47.4241L49.092 46.884C49.1683 46.7088 49.205 46.5476 49.205 46.4006L49.1485 46.1744C49.1485 46.0953 49.1966 45.9426 49.2899 45.7192C49.2757 45.6429 49.2277 45.5666 49.1485 45.4931L49.092 45.2951H49.1202C49.1994 45.2471 49.2588 45.1821 49.2899 45.0972C49.2899 45.0322 49.1117 44.9842 48.7499 44.9559C48.4982 45.1085 48.3484 45.1821 48.2947 45.1821L47.8678 44.9276L47.5257 44.9559C47.4409 44.922 47.3645 44.8569 47.2967 44.758V44.6166C47.5963 44.1049 47.9441 43.8476 48.3484 43.8476L48.8036 44.0172L48.8318 43.989H48.8601L48.8884 44.0172L49.598 43.7911L50.5932 43.989C50.6611 43.989 50.8307 43.9239 51.1049 43.7911H51.1615C51.3792 43.9607 51.6449 44.0455 51.9588 44.0455L52.4422 43.76L52.5553 43.7317L53.0105 43.9013L53.2367 43.8448C53.3356 43.8448 53.4487 43.8928 53.5788 43.9861L54.0057 43.8165C54.2008 43.9296 54.4269 44.0257 54.687 44.0992L54.8567 44.3254V44.382L54.8001 44.6081C54.9895 45.0746 55.0857 45.3884 55.0857 45.5439L55.2553 46.5391L55.1705 47.0226L55.227 47.2205C55.227 47.2629 55.1139 47.424 54.8878 47.7039C54.8171 47.8566 54.721 47.9301 54.6022 47.9301C54.5315 47.9301 54.4665 47.8651 54.4043 47.7294L54.4609 47.4184C54.3534 47.0169 54.1527 46.7031 53.8643 46.4798V46.4515C53.9972 46.3045 54.065 46.1914 54.065 46.1094V46.0246C53.9322 45.8776 53.8643 45.7645 53.8643 45.6825C53.8643 45.6033 53.9406 45.4704 54.0905 45.2838V45.2556C54.0905 45.151 53.9689 45.0266 53.723 44.8852C53.641 44.8711 53.5561 44.8428 53.4685 44.8004L53.4402 44.8287H53.412L53.3837 44.8004H53.3554C53.1575 44.8004 52.9115 44.9135 52.6175 45.1425H52.5327C52.4677 45.1425 52.3235 45.0661 52.1058 44.9163C51.6704 44.9163 51.3877 44.9813 51.2548 45.117L51.0823 45.2019C51.0343 45.2019 50.9042 45.1255 50.6837 44.9757H50.5989C50.3868 44.9757 50.2342 45.0237 50.1437 45.1199V45.3178C50.1437 45.4535 50.172 45.6146 50.2285 45.7984L50.2002 46.2253C50.2002 46.4911 50.2766 46.7172 50.4292 46.9067V47.048C50.3359 47.1837 50.2879 47.2883 50.2879 47.3619C50.3105 47.458 50.4151 47.5598 50.5989 47.6728L50.6271 47.8142L50.5423 48.0121H50.5706L50.7148 48.0969H50.7996L51.1982 47.8708L51.4527 47.899C51.5771 47.8368 51.6789 47.6587 51.7665 47.359V47.2742C51.6902 47.1526 51.6534 47.048 51.6534 46.9632C51.6534 46.7823 51.8344 46.6692 52.1934 46.6211L52.5327 46.3667C52.6854 46.3667 52.7617 46.508 52.7617 46.7936C52.8946 47.0452 52.9596 47.2261 52.9596 47.3336L52.9031 47.6191L53.0444 48.1309L53.0161 48.4418L53.0444 49.0667V49.2957L53.0727 49.4936H53.0444L53.0727 49.5219V49.5501C53.0048 50.4209 52.872 50.8563 52.674 50.8563H52.5892C52.332 50.8563 52.0294 50.7234 51.6789 50.4577V50.3728L51.792 49.8328L51.6223 49.3494L51.6506 49.2646C51.5658 49.225 51.5177 49.1882 51.5092 49.1515L51.2831 49.1798L50.9127 49.1515L50.5706 49.5219C50.4575 49.5841 50.3727 49.6887 50.3161 49.8357L50.3444 50.1212V50.3474L50.3161 50.5199C50.3161 50.681 50.4123 50.8591 50.5989 51.0599V51.0881L50.3444 51.3426V51.3991L50.7431 51.6819L50.7713 51.7101V51.7384L50.6865 52.0239L50.7148 52.1653H50.7996L51.17 52.0239L51.4555 52.0522C51.6251 51.8063 51.7609 51.6819 51.8542 51.6819H51.9107C51.9588 51.6819 52.0323 51.7949 52.1369 52.0239L52.2217 52.0805L52.6769 51.9109L53.1886 52.137L53.559 52.1653C53.7682 52.0183 53.8728 51.8487 53.8728 51.6536C53.8728 51.5009 53.853 51.4246 53.8162 51.4246L53.9011 50.9694L53.8445 50.5708C53.8445 50.5283 53.9576 50.4039 54.1866 50.2004"
            fill="#111111" />
        <path fill-rule="evenodd" clip-rule="evenodd"
            d="M17.1726 9.04713C17.1471 8.8888 17.1924 8.8888 17.1386 8.69938C16.9096 7.91624 16.5732 7.24053 16.3301 6.47152C16.2283 6.36974 16.217 6.33582 16.1519 6.20011C15.6826 5.08336 14.727 4.37372 13.7205 3.74891C13.1127 3.22587 12.5642 2.88943 10.7774 2.60953C10.718 2.58409 10.6473 2.56713 10.554 2.57561H10.5512C10.2289 2.52755 9.87267 2.48231 9.47121 2.43707C7.91058 2.26179 6.55069 2.51341 5.4 2.9799C5.39435 2.9799 5.39152 2.9799 5.38587 2.9799C5.38304 2.98273 5.38304 2.98556 5.38021 2.98556C4.85718 3.1976 4.37938 3.45487 3.94681 3.7376H3.91854C3.71498 3.86765 3.50011 4.03163 3.28524 4.21257C2.77351 4.61969 2.34377 5.05226 1.99885 5.46503C1.88859 5.5866 1.78398 5.70252 1.69069 5.81561C1.62566 5.89194 1.57194 5.97959 1.52388 6.07006C0.882099 6.92105 0.684193 7.33948 0.537178 8.54671C0.494769 8.60891 0.452361 8.67111 0.426916 8.75027C0.395817 9.49948 0.277073 10.4409 0.285555 11.3344C0.251628 11.9309 0.274246 12.4172 0.336445 12.813C0.291209 12.8497 0.248801 12.8922 0.274246 13.0024C0.500424 13.5509 0.0650312 14.433 0.780319 14.7242C1.24116 14.7044 1.91686 14.7468 2.63781 14.7779C3.31634 14.8712 4.65079 14.8373 5.43959 14.7638C5.48482 14.8034 5.5555 14.8231 5.64315 14.809C5.77037 14.7836 5.87215 14.7412 5.96545 14.6903C5.97676 14.6874 5.99655 14.6846 6.00503 14.6818C6.16053 14.6366 6.251 14.4952 6.30189 14.3397C6.65529 13.6188 6.18032 12.2589 6.29906 11.2552L6.30189 11.258C6.30189 11.258 6.30189 11.2467 6.30189 11.2269C6.30189 11.2241 6.30189 11.2184 6.30189 11.2156C6.30472 11.1817 6.30189 11.1562 6.29906 11.1308C6.29906 10.9781 6.30472 10.6982 6.34147 10.3731C6.61571 9.31006 7.07938 8.43927 8.22158 8.24419C8.24985 8.23006 8.26681 8.20744 8.28095 8.17917C8.37142 8.1509 8.45906 8.12545 8.54953 8.10849C8.55802 8.1198 8.5665 8.13393 8.57781 8.14524C9.60126 8.23571 10.5484 8.36859 10.9187 9.11498C10.9498 9.20262 10.9923 9.26482 11.0036 9.36943C11.1082 9.53906 11.2015 9.65215 11.2835 9.7822C11.4079 10.2148 11.4333 10.6615 11.4248 11.0177C11.2665 11.7528 11.0742 12.4935 10.9612 13.2088C10.9555 13.2427 10.9555 13.2795 10.9527 13.3134C10.7435 14.0598 10.4749 14.9278 10.1865 15.6374C10.0451 15.8805 9.89812 16.1293 9.79351 16.4516C9.77655 16.4884 9.76807 16.5223 9.76241 16.5534C9.57864 16.9153 9.36095 17.3281 9.12912 17.7522C8.97079 17.9161 8.72482 18.2752 8.68241 18.5268C8.15655 19.2167 8.32618 19.3439 7.70985 20.1298C7.70985 20.2486 7.21791 20.9837 7.21508 21.1052C7.21508 21.1081 7.21226 21.1081 7.21226 21.1109C6.62137 21.7498 6.39236 22.3634 5.75341 23.3416C4.94482 24.3848 4.68472 25.315 4.02315 26.1745C4.01749 26.2056 4.01749 26.231 4.01749 26.2564C3.56231 26.9972 2.96294 28.0687 2.37205 29.4003C2.36639 29.406 2.35791 29.4088 2.35226 29.4145V29.4456C2.13739 29.9318 1.92535 30.452 1.71896 31.0034C1.01498 32.4905 0.540005 34.2009 0.376026 36.05C0.370371 36.1093 0.376026 36.1546 0.387335 36.1998C0.308172 36.7652 0.243146 37.342 0.206392 37.9329C0.135712 38.176 0.124403 38.4616 0.169638 38.7273C0.161157 39.0044 0.15833 39.2871 0.161157 39.5699C0.161157 39.5699 0.404298 39.5868 0.794455 39.6094C0.848173 39.6207 0.90189 39.6236 0.961261 39.6179C1.81791 39.6575 3.20891 39.6999 4.39351 39.6123C4.85152 39.6547 5.33215 39.6631 5.79582 39.6462C7.49215 39.7367 9.5221 39.3521 10.9103 39.5444C11.3881 39.6123 11.9026 39.5246 12.5303 39.5444C13.0985 39.5642 13.582 39.6066 14.0457 39.5274C14.2125 39.4992 14.4443 39.502 14.6054 39.4963C15.3858 39.4568 15.9201 39.8752 16.5308 39.4963C17.0369 39.1797 16.9181 38.6086 16.8842 37.9753C16.8672 37.6473 16.9888 37.2826 16.986 37.0649C16.9775 36.0895 17.15 33.7656 16.429 33.7231C15.8918 33.7062 15.3886 33.7458 14.9108 33.7231C14.4415 33.7005 14.0089 33.7542 13.5961 33.791C13.1494 33.7853 12.6773 33.7797 12.2023 33.774C12.1118 33.7684 12.0214 33.7627 11.9196 33.7656C11.7952 33.7684 11.6538 33.7656 11.5181 33.7656C11.1195 33.7599 10.7265 33.7571 10.3476 33.7514C9.74828 33.6977 9.12629 33.6016 8.58063 33.6723C8.54388 33.6864 8.51561 33.709 8.48733 33.7316C8.22158 33.7288 7.98692 33.726 7.79466 33.726C7.59676 33.6242 7.37341 33.5931 7.31404 33.3189C7.19246 32.7675 7.40168 32.6064 7.5798 32.2134C7.66744 32.024 7.84555 31.8261 7.92189 31.648C8.25268 30.8479 8.82943 30.1382 8.93404 29.5191C9.72 28.784 9.88116 27.4297 10.6558 26.6834C11.3202 25.5807 11.8093 24.3085 12.5105 23.2455L12.5557 23.2596C12.5557 23.2596 12.7056 23.0391 12.9487 22.6574C13.0109 22.5811 13.0703 22.5019 13.1381 22.4312C13.1692 22.352 13.2088 22.2757 13.2399 22.1966C14.3001 20.4917 16.2848 17.0934 16.8672 14.6281C16.8785 14.6281 16.8842 14.6281 16.8955 14.6281C16.8983 14.5687 16.9012 14.5093 16.9068 14.4528C16.9549 14.2294 16.9888 14.0174 17.0086 13.8138C17.0934 13.4519 17.1924 13.1325 17.1924 12.8441C17.2489 12.83 17.2376 12.7225 17.2122 12.6066C17.3054 12.0214 17.3648 11.4587 17.3676 10.8933C17.4214 10.2657 17.3931 9.68325 17.1726 9.04713Z"
            fill="#111111" />
        <path fill-rule="evenodd" clip-rule="evenodd"
            d="M36.4995 12.8865C36.5278 12.3861 36.5278 11.8942 36.4429 11.4418C36.3864 10.2855 36.3044 9.27334 36.1857 8.54109C35.7814 6.05596 34.3762 4.61408 32.8015 3.7235C32.7902 3.71502 32.776 3.70654 32.7647 3.70088C32.4792 3.53408 32.1031 3.32486 31.7271 3.17785C31.0967 2.93188 30.5284 2.67177 29.8527 2.57848C28.3514 2.22224 26.918 2.3523 25.592 2.60109C25.0492 2.66329 24.5431 2.76224 24.0908 2.91774C23.9947 2.94036 23.8985 2.96015 23.8052 2.97994C22.7479 3.2146 21.9053 3.98078 21.3738 4.60277C20.7009 5.26434 20.0705 6.08423 19.6945 7.05963C19.2732 7.96434 19.1092 8.83795 19.0498 9.45994C19.047 9.48539 19.0442 9.51083 19.0414 9.53628C18.999 10.0367 19.0216 10.3562 19.0216 10.3562V11.9366C19.0159 11.9564 19.0131 11.979 19.0103 11.9988C19.0159 12.0016 19.0187 12.0101 19.0216 12.0158V12.9289C18.8972 13.3361 18.9452 13.7771 19.0216 14.2521V16.4149C18.9452 16.8022 18.9848 17.3536 18.9141 17.608C18.8208 17.9416 18.8802 18.3996 18.9141 18.8746C18.9424 19.2732 19.0414 19.7058 19.0159 20.1412C18.9848 20.6897 19.047 21.2975 18.965 21.6114C18.9396 21.7103 18.9876 21.7895 19.0244 21.8743V23.5226C19.0018 23.712 18.9905 23.8929 19.0131 24.0484C19.0187 24.0852 19.0216 24.1191 19.0244 24.153V27.5542C19.0018 27.7323 18.9933 27.8963 19.0244 28.0574V28.5098C18.9396 28.8688 19.0046 29.2194 19.0159 29.5615C19.0187 29.5615 19.0187 29.5615 19.0244 29.5615V29.9093C18.982 30.1354 18.9933 30.3899 19.0244 30.6528V31.1278C19.0244 32.7308 19.1488 33.5281 19.2817 33.9211C19.3467 34.2095 19.4174 34.4668 19.4711 34.6222C19.751 35.4252 19.9828 36.1461 20.3815 36.6465C20.3928 36.6437 20.4069 36.6409 20.4211 36.6381C20.5059 36.7794 20.5935 36.9151 20.6868 37.048C20.6868 37.0508 20.6868 37.0508 20.6868 37.0537C20.7631 37.3081 20.9073 37.4438 21.0741 37.5654C21.2636 37.7972 21.453 38.0036 21.6368 38.1789C22.1909 38.7104 22.6828 38.9818 23.2596 39.1741C23.8901 39.7395 24.9248 39.847 25.92 40.0392C26.1518 40.0844 26.4685 40.1297 26.7145 40.1438C27.1668 40.1693 27.8199 40.1466 28.2581 40.124C28.9706 40.0873 29.6067 40.0533 30.158 39.9431C31.532 39.6632 32.7647 38.8574 33.6016 38.2722C33.6723 38.2072 33.7938 38.1026 33.8617 38.0375C33.9465 38.0375 33.8702 37.9669 33.955 37.9669C34.4893 37.3533 34.9304 36.7229 35.3658 36.0076C35.3799 35.951 35.3714 35.9199 35.3601 35.8973C35.3969 35.8153 35.4336 35.7305 35.4704 35.6429C35.6174 35.5015 35.6711 35.2612 35.6994 34.9926C35.804 34.6477 35.8945 34.2717 35.9764 33.8759C35.9878 33.8646 35.9991 33.8532 36.0132 33.8419L36.2365 32.3916C36.3298 31.9222 36.3044 31.7894 36.3383 31.4812C36.3496 31.3822 36.3496 31.1561 36.3723 31.0628C36.4882 30.5963 36.4825 30.1157 36.4571 29.6294C36.6041 26.6353 36.4514 23.9071 36.4514 23.9071C36.4514 23.9071 36.5391 21.1251 36.5532 17.837C36.556 17.8257 36.5532 17.8144 36.5532 17.8059C36.556 16.2 36.5475 14.4698 36.4995 12.8865ZM28.9904 34.1218C28.7755 34.1049 28.637 34.1614 28.5154 34.2406C28.49 34.2434 28.4645 34.2491 28.4362 34.2519C27.5513 34.3508 26.8643 34.1558 26.0981 33.9098C25.8748 33.791 25.6938 33.6497 25.5807 33.4914C25.397 33.2313 25.3093 32.7224 25.2613 32.1513L25.2641 27.2715C25.2924 26.5873 25.3291 25.8381 25.25 25.1624C25.2386 23.7205 25.2245 21.6368 25.2075 19.4881C25.2697 19.0838 25.3008 18.6824 25.1991 18.3007C25.1991 18.0999 25.1962 17.8964 25.1934 17.6956C25.3772 16.1548 25.2839 14.5885 25.1538 13.0816C25.151 12.912 25.151 12.7452 25.1482 12.5869C25.1623 12.1599 25.168 11.7019 25.1397 11.2637C25.1453 11.2156 25.151 11.1676 25.1567 11.1195C25.3008 10.1526 25.5638 9.38078 26.067 8.72769C26.2056 8.59481 26.3582 8.49586 26.5165 8.41952C26.5929 8.43366 26.6579 8.43931 26.7569 8.39125C26.8671 8.32905 26.9859 8.28099 27.1103 8.23858C27.475 8.17921 27.8623 8.18204 28.2525 8.18204C28.292 8.18204 28.326 8.18769 28.3656 8.19052C29.0328 8.34036 29.6152 8.75314 29.7707 9.36382C29.8159 9.3723 29.8555 9.39209 29.8894 9.42036C29.9686 9.58999 30.0223 9.73701 30.0534 9.83314C30.0534 9.84162 30.0534 9.8501 30.0534 9.85858C30.0562 9.85858 30.0562 9.85858 30.0619 9.85858C30.0789 9.91795 30.0873 9.95188 30.0873 9.95188C30.0873 9.95188 30.0873 9.98581 30.0902 10.0424C30.0789 10.048 30.0647 10.0537 30.0534 10.0593C30.0704 10.4042 29.9884 11.0743 30.0534 11.6284C30.0619 11.6906 30.0902 11.7472 30.1184 11.8009C30.1241 12.1373 30.1297 12.5133 30.1354 12.9233C30.1071 13.2032 30.0902 13.4718 30.1467 13.6923C30.158 14.4783 30.1693 15.3519 30.1806 16.282C30.0647 17.4412 30.1976 18.5184 30.1552 19.6804C30.1524 19.7228 30.1806 19.7341 30.2174 19.7369C30.2202 19.9744 30.2202 20.2175 30.223 20.4578C30.2174 20.4833 30.2117 20.5087 30.2061 20.5427C30.2089 20.636 30.2174 20.7349 30.2259 20.8339C30.2372 22.2984 30.2428 23.7714 30.2428 25.1539C30.2061 25.2019 30.1778 25.2387 30.2061 25.3037C30.0732 27.4581 30.24 29.9602 30.0534 32.0891C29.9799 32.94 30.0138 33.7373 29.2533 34.0342C29.1685 34.0653 29.0808 34.0936 28.9904 34.1218Z"
            fill="#111111" />
        <path fill-rule="evenodd" clip-rule="evenodd"
            d="M55.6398 23.9155C55.6398 23.9155 55.801 18.8293 55.7246 14.2888C55.7274 14.2831 55.7274 14.2775 55.7274 14.2718C55.7472 14.221 55.7416 14.1983 55.7218 14.1842C55.719 14.0146 55.7161 13.8449 55.7105 13.6781C55.7133 13.6216 55.7133 13.565 55.7077 13.5085C55.6879 12.6207 55.6539 11.7669 55.6115 10.9923C55.5946 10.4777 55.5606 9.97163 55.4956 9.49383C55.4589 9.14325 55.4193 8.82095 55.374 8.54388C55.0093 6.3132 53.8247 4.92503 52.4337 4.02032C52.3857 3.97226 52.3348 3.92702 52.2811 3.8931C52.2217 3.85351 52.1567 3.82807 52.0888 3.80545C51.8428 3.66126 51.5912 3.53404 51.3396 3.41529C51.2859 3.36723 51.2293 3.31917 51.1671 3.28524C50.6978 3.01948 50.0136 2.78482 49.3973 2.69718C49.3747 2.69152 49.3492 2.68304 49.3266 2.67456C48.5859 2.45969 47.8621 2.37205 47.1553 2.36357C45.6032 2.34095 44.15 2.70001 42.8466 2.98556C40.9524 3.40116 39.7282 5.40001 39.7282 5.40001C37.9103 7.06807 38.0036 10.359 38.0036 10.359V16.7796C37.9499 17.0001 37.9725 17.2772 38.0036 17.5429V19.9659C37.9894 20.3278 37.981 20.667 38.0036 20.9384V21.7159C38.0007 21.7159 38.0007 21.7159 37.9979 21.7159C37.9979 21.8149 38.0007 21.9195 38.0036 22.0213V26.9095C37.9753 27.2234 37.9555 27.54 38.0036 27.7831V31.1362C38.0036 31.4444 38.0092 31.7215 38.0177 31.9731C38.0121 31.9788 38.0064 31.9901 38.0007 31.9957C38.0092 32.0155 38.0149 32.0353 38.0205 32.0551C38.0686 33.3019 38.2128 33.8617 38.3428 34.1105C38.4955 34.6957 38.7076 35.2499 38.9705 35.7672C39.3691 36.7313 40.059 37.6219 40.647 38.1817C41.1474 38.6567 41.5998 38.9252 42.1087 39.1118C42.3377 39.2475 42.5809 39.3748 42.8636 39.4963C43.0926 39.5953 43.4064 39.7282 43.6693 39.7904C43.8616 39.8356 44.1217 39.9204 44.3139 39.9459C44.6362 39.9883 44.8794 40.0081 45.1876 40.042C46.3806 40.1721 47.3278 40.0392 48.3286 39.9402C48.6198 39.9119 48.911 39.9713 49.1881 39.9402C50.0956 39.8384 50.8194 39.5048 51.5516 39.0779C51.7495 38.962 51.9927 38.8433 52.1736 38.7273C52.3885 38.586 52.5949 38.4474 52.8182 38.2778C52.985 38.1506 53.1151 37.9809 53.2367 37.865C53.4628 37.6473 53.6721 37.2148 53.9463 36.8529C54.0368 36.7341 54.1131 36.6182 54.1866 36.4995C54.4213 36.1659 54.6192 35.7361 54.7888 35.2357C54.8764 35.0095 54.9613 34.7749 55.0602 34.5204C55.374 33.7034 55.4193 33.2256 55.4645 32.1908C55.4786 31.8544 55.5041 31.5038 55.5267 31.1504C55.8518 27.639 55.6398 23.9155 55.6398 23.9155ZM45.5862 34.02C44.82 33.5535 44.4581 32.6912 44.3903 31.484L44.3931 27.1074C44.3931 27.1074 44.3874 26.214 44.3761 24.84L44.4129 24.1869C44.4016 24.3198 44.3874 24.4555 44.3761 24.5884C44.3733 24.3481 44.3733 24.0964 44.3705 23.8363C44.3931 22.01 44.4185 19.6634 44.4355 17.4383C44.4355 17.4327 44.4355 17.4242 44.4355 17.4157C44.4525 15.3405 44.461 13.3728 44.4553 12.0383C44.4666 12.0383 44.4779 12.0412 44.4892 12.0412C44.4751 9.91509 44.8624 8.19613 47.0733 8.29226C47.4946 8.182 47.8621 8.38273 48.2381 8.54388C48.5067 8.78985 48.6792 8.91707 48.8205 9.07257C49.1061 9.51362 49.2135 9.95467 49.2135 9.95467C49.2135 9.95467 49.3181 15.7109 49.3549 21.3993C49.3436 21.4869 49.3407 21.5661 49.3549 21.6113V21.6481C49.3294 21.6057 49.2983 21.5378 49.3464 21.6481C49.3492 21.6763 49.3521 21.7074 49.3549 21.7385C49.3605 22.55 49.3634 23.3585 49.3662 24.1473C49.304 25.3376 49.2022 26.5901 49.2503 27.6418C49.2899 28.5126 49.1598 29.2844 49.3266 29.8696C49.3068 30.7885 49.2757 31.5123 49.2333 31.9561C49.2107 32.188 49.1881 32.4028 49.1626 32.6036C49.1117 32.8326 49.0411 33.039 48.9478 33.2171C48.7527 33.5846 48.8686 33.6723 48.4191 34.0341C48.1505 34.1048 47.8451 34.2207 47.5398 34.2547C47.4182 34.2688 47.2995 34.2773 47.1807 34.2801C46.604 34.2858 46.1036 34.1755 45.5862 34.02Z"
            fill="#111111" />
        <path
            d="M60.0616 8.82105C61.2518 8.82105 62.3375 8.33477 63.1178 7.55445C63.8981 6.77697 64.3844 5.68848 64.3844 4.49822C64.3844 3.30796 63.8981 2.22231 63.1178 1.44482C62.3403 0.664505 61.2518 0.178223 60.0616 0.178223C58.8713 0.178223 57.7856 0.664505 57.0053 1.44482C56.225 2.22231 55.7387 3.31079 55.7416 4.49822C55.7416 5.68848 56.225 6.77414 57.0053 7.55445C57.7856 8.33477 58.8741 8.82105 60.0616 8.82105ZM58.7582 3.1977C59.0947 2.86126 59.547 2.6577 60.0616 2.6577C60.5733 2.6577 61.0285 2.86126 61.3649 3.1977C61.7014 3.53414 61.9049 3.98932 61.9049 4.50105C61.9049 5.0156 61.7014 5.46796 61.3649 5.8044C61.0285 6.13801 60.5733 6.34157 60.0616 6.3444C59.5498 6.3444 59.0947 6.14084 58.7582 5.8044C58.4218 5.46513 58.2182 5.01278 58.2182 4.50105C58.221 3.98649 58.4246 3.53414 58.7582 3.1977Z"
            fill="#EE3124" />
    </g>
    <defs>
        <clipPath id="clip0">
            <rect width="64.4607" height="54" fill="white" />
        </clipPath>
    </defs>
</svg>